<?xml version="1.0" standalone="no"?>
<svg viewBox="0 0 200 200" xmlns="http://www.w3.org/2000/svg">
  <path fill="#DEEBF8" d="M36.3,-52.5C45.2,-43.6,49.1,-30.4,56.7,-16.2C64.4,-2,75.7,13.1,76.5,29.2C77.3,45.3,67.4,62.3,52.9,73.3C38.4,84.4,19.2,89.4,4.5,83.2C-10.3,77.1,-20.5,59.7,-30.6,47.3C-40.6,34.8,-50.4,27.2,-58.2,15.9C-65.9,4.7,-71.6,-10.2,-67.1,-21.2C-62.7,-32.2,-48.2,-39.3,-35.4,-46.9C-22.5,-54.4,-11.2,-62.5,1.3,-64.2C13.8,-65.9,27.5,-61.4,36.3,-52.5Z" transform="translate(100 100)" />
</svg>
